P3
31 32
255
252 253 255 252 255 248 251 255 250 248 253 255 255 253 255 255 253 255 
253 251 252 254 254 255 253 255 250 253 255 252 255 247 251 255 229 241 
253 223 235 255 240 250 255 251 255 255 248 255 255 250 255 254 248 250 
255 255 250 255 255 248 249 251 246 251 255 255 249 255 255 251 255 255 
251 255 255 255 247 253 255 248 255 255 250 253 254 253 251 255 253 253 
255 253 255 254 255 255 247 253 243 251 255 250 251 255 255 252 250 255 
255 253 255 255 254 255 253 253 255 253 255 250 244 246 243 224 213 217 
176 146 158 188 158 170 218 202 212 217 212 218 219 212 219 226 216 224 
245 239 241 249 246 241 255 255 248 254 255 251 248 254 252 249 255 255 
248 254 254 251 255 255 255 249 255 255 248 255 255 252 255 255 255 253 
255 252 252 255 253 255 254 251 255 255 253 255 255 252 254 255 254 255 
255 255 250 254 255 241 255 255 241 255 243 236 255 187 189 221 125 127 
206 80 81 195 68 62 232 146 129 243 207 185 236 212 200 243 209 210 
221 208 200 229 194 192 228 178 181 253 217 219 255 250 251 255 249 253 
255 251 255 255 251 255 248 255 251 247 255 255 247 255 255 251 255 255 
252 255 255 252 254 251 254 254 254 255 253 255 255 251 255 255 252 254 
255 254 255 221 222 216 215 216 202 237 231 217 194 179 172 162 92 94 
168 72 74 190 64 65 197 70 64 190 104 87 176 140 118 202 178 166 222 188 189 
225 212 204 228 193 191 188 138 141 165 129 131 215 199 200 255 253 255 
255 251 255 255 247 255 246 255 249 247 255 255 246 255 255 249 254 255 
252 255 255 254 255 253 254 254 254 255 252 251 254 254 254 252 253 248 
247 230 214 213 172 150 207 140 123 223 121 119 202 70 81 196 59 69 193 69 71 
190 71 67 191 66 62 185 62 57 185 73 71 198 94 95 201 94 100 201 96 93 
213 103 102 207 84 89 182 55 66 198 92 102 250 191 187 255 242 228 252 231 210 
252 222 214 255 248 240 251 255 255 253 254 255 255 255 255 251 255 255 
251 255 253 255 249 248 255 255 255 253 254 249 218 201 185 199 158 136 
184 117 100 167 65 63 193 61 72 205 68 78 193 69 71 189 70 66 194 69 65 
200 77 72 186 74 72 158 54 55 164 57 63 172 67 64 173 63 62 191 68 73 
198 71 82 177 71 81 177 118 114 203 175 161 200 179 158 213 183 175 
230 223 215 251 255 255 253 254 255 255 255 255 250 255 254 251 255 253 
245 255 246 251 253 252 255 250 248 219 191 167 197 123 98 210 87 82 200 65 72 
193 74 78 187 63 73 189 68 73 197 73 75 191 66 70 176 73 77 129 70 72 
94 69 73 96 84 94 93 75 73 121 71 80 130 68 81 113 72 80 94 74 75 91 67 65 
128 93 87 189 147 135 216 149 133 228 190 177 255 253 244 254 252 253 
255 254 255 253 253 255 251 255 254 241 255 242 254 255 255 252 242 240 
204 176 152 173 99 74 190 67 62 204 69 76 186 67 71 194 70 80 187 66 71 
194 70 72 194 69 73 167 64 68 116 57 59 137 112 116 161 149 159 139 121 119 
102 52 61 115 53 66 119 78 86 115 95 96 133 109 107 151 116 110 190 148 136 
214 147 131 218 180 167 255 253 244 253 251 252 255 254 255 255 255 255 
252 255 255 255 251 255 255 251 255 245 226 228 201 148 132 176 85 66 
183 72 65 183 68 73 188 75 81 188 72 59 188 73 66 184 71 73 171 75 86 
120 66 79 80 70 81 131 140 155 172 177 199 141 136 158 90 87 108 148 140 163 
185 180 203 163 176 193 160 187 194 174 181 187 185 158 167 212 154 116 
215 176 147 244 233 215 251 255 250 247 253 253 255 253 255 255 253 255 
255 251 255 251 245 255 225 206 208 199 146 130 200 109 90 214 103 96 
196 81 86 181 68 74 186 70 57 191 76 69 177 64 66 152 56 67 94 40 53 57 47 58 
102 111 126 118 123 145 88 83 105 121 118 139 183 175 198 195 190 213 
180 193 210 174 201 208 188 195 201 199 172 181 205 147 109 203 164 135 
221 210 192 251 255 250 250 255 255 255 253 255 255 253 255 251 248 255 
255 255 251 219 204 183 196 158 121 204 153 110 209 150 116 192 109 93 
182 69 65 173 79 80 126 70 71 73 57 60 75 79 90 134 146 162 130 146 159 
79 88 95 65 60 66 92 108 108 156 161 164 191 192 197 186 193 201 191 195 207 
192 188 203 194 194 204 174 190 190 210 151 109 209 155 127 210 181 165 
255 255 247 251 255 254 255 252 255 255 248 253 255 253 255 248 247 243 
200 185 164 200 162 125 214 163 120 213 154 120 198 115 99 185 72 68 150 56 57 
102 46 47 126 110 113 166 170 181 181 193 209 174 190 203 160 169 176 
171 166 172 163 179 179 186 191 194 190 191 196 184 191 199 189 193 205 
188 184 199 194 194 204 173 189 189 210 151 109 208 154 126 199 170 154 
252 252 244 250 254 253 255 252 255 255 249 254 251 253 250 238 194 181 
225 154 124 213 154 114 210 162 124 215 157 135 165 108 97 102 65 56 71 65 93 
136 141 161 177 184 200 195 193 207 195 189 201 189 189 199 196 196 206 
193 187 201 191 195 204 186 195 200 188 197 202 186 193 201 182 195 204 
178 195 205 189 197 208 189 181 194 202 147 117 202 154 134 205 172 165 
255 247 246 255 254 255 255 255 255 255 255 255 228 230 227 208 164 151 
225 154 124 214 155 115 210 162 124 192 134 112 128 71 60 110 73 64 153 147 175 
184 189 209 183 190 206 188 186 200 197 191 203 192 192 202 190 190 200 
198 192 206 187 191 200 181 190 195 187 196 201 184 191 199 182 195 204 
178 195 205 183 191 202 188 180 193 209 154 124 204 156 136 212 179 172 
255 250 249 255 254 255 252 252 254 255 255 255 250 233 239 194 173 146 
203 160 117 218 154 127 188 135 129 104 88 88 85 89 100 147 151 178 
193 190 201 189 198 207 185 200 207 182 191 200 181 191 201 184 201 211 
172 189 199 186 193 209 197 193 218 185 190 209 183 196 205 182 192 201 
194 192 205 197 189 202 183 183 191 148 164 163 164 149 118 152 146 124 
179 175 166 255 253 253 253 254 255 244 255 252 251 255 253 255 246 252 
211 190 163 207 164 121 215 151 124 149 96 90 80 64 64 139 143 154 176 180 207 
182 179 190 181 190 199 178 193 200 190 199 208 182 192 202 178 195 205 
179 196 206 185 192 208 190 186 211 184 189 208 185 198 207 184 194 203 
190 188 201 199 191 204 179 179 187 105 121 120 121 106 75 109 103 81 
153 149 140 255 251 251 254 255 255 247 255 255 250 255 252 253 252 255 
233 230 215 192 167 136 200 147 115 183 123 99 172 125 105 202 162 136 
205 160 129 211 154 143 204 170 169 191 187 201 183 196 213 182 195 211 
185 191 203 188 190 202 187 191 203 184 193 200 181 191 200 190 196 210 
192 191 209 192 189 210 180 193 209 127 171 174 33 100 93 38 102 101 
0 98 77 129 161 158 255 250 255 253 255 252 249 255 251 245 255 255 
254 253 255 253 250 235 196 171 140 200 147 115 211 151 127 208 161 141 
200 160 134 206 161 130 209 152 141 196 162 161 182 178 192 180 193 210 
183 196 212 185 191 203 189 191 203 191 195 207 184 193 200 189 199 208 
180 186 200 190 189 207 195 192 213 161 174 190 75 119 122 39 106 99 45 109 108 
0 105 84 125 157 154 255 247 254 252 254 251 251 255 253 245 255 255 
255 254 255 250 249 245 210 194 178 205 161 136 215 150 120 222 156 122 
213 159 125 206 161 128 191 166 146 178 178 166 171 193 191 177 198 203 
188 192 201 193 188 195 186 191 197 178 197 203 190 191 211 191 189 203 
194 193 201 183 195 195 155 187 182 88 143 138 28 102 101 23 107 109 
42 102 103 3 99 87 129 154 161 255 249 255 251 254 255 255 255 255 250 255 249 
253 252 255 255 255 251 247 231 215 213 169 144 221 156 126 214 148 114 
203 149 115 192 147 114 184 159 139 183 183 171 180 202 200 179 200 205 
186 190 199 196 191 198 191 196 202 178 197 203 189 190 210 197 195 209 
190 189 197 164 176 176 101 133 128 32 87 82 36 110 109 24 108 110 42 102 103 
0 94 82 125 150 157 255 250 255 252 255 255 255 255 255 249 254 248 
255 251 255 255 254 255 250 246 247 201 182 168 200 153 123 212 153 119 
197 157 131 145 134 114 90 162 142 129 175 173 169 185 201 186 187 208 
187 190 205 189 197 208 189 197 210 187 188 208 173 186 202 146 180 189 
110 170 171 52 122 120 22 88 87 47 109 108 33 99 95 33 106 97 45 111 123 
5 90 85 123 147 151 253 251 252 248 255 249 255 255 251 251 255 255 
255 253 255 249 248 254 255 254 255 244 225 211 210 163 133 212 153 119 
187 147 121 124 113 93 19 91 71 57 103 101 108 124 140 147 148 169 163 166 181 
164 172 183 159 167 180 157 158 178 126 139 155 82 116 125 33 93 94 33 103 101 
41 107 106 38 100 99 36 102 98 35 108 99 33 99 111 17 102 97 143 167 171 
253 251 252 247 255 248 255 255 251 251 255 255 255 246 245 255 251 255 
251 255 255 243 254 248 219 221 200 179 177 156 98 124 111 33 98 90 44 106 117 
35 101 113 25 95 105 15 90 95 10 91 85 7 93 82 8 95 86 9 96 90 21 93 90 
27 97 95 35 105 103 30 102 101 33 107 106 29 101 100 43 113 113 33 101 102 
28 90 79 69 132 115 195 205 197 255 254 246 254 255 245 255 251 250 
251 255 255 255 252 251 255 252 255 251 255 255 244 255 249 255 255 236 
226 224 203 133 159 146 33 98 90 34 96 107 37 103 115 37 107 117 31 106 111 
28 109 103 29 115 104 28 115 106 24 111 105 33 105 102 32 102 100 31 101 99 
35 107 106 32 106 105 32 104 103 24 94 94 37 105 106 39 101 90 109 172 155 
227 237 229 255 254 246 255 255 246 255 252 251 250 254 255 251 255 251 
255 254 255 254 252 255 254 254 254 255 252 253 255 248 255 233 225 240 
152 165 182 44 100 99 36 100 99 32 104 100 33 108 101 30 101 93 40 107 100 
34 103 100 33 105 102 30 105 98 31 103 102 34 103 108 35 103 106 34 99 91 
45 103 79 79 121 83 110 142 95 126 163 109 147 178 134 203 205 184 250 245 241 
253 251 254 255 250 255 255 253 254 249 255 249 255 254 255 255 253 255 
255 255 255 255 252 253 255 248 255 255 251 255 222 235 252 121 177 176 
38 102 101 33 105 101 29 104 97 35 106 98 33 100 93 39 108 105 30 102 99 
35 110 103 31 103 102 27 96 101 32 100 103 55 120 112 94 152 128 138 180 142 
165 197 150 164 201 147 160 191 147 182 184 163 222 217 213 255 254 255 
255 246 253 255 253 254 249 255 255 255 255 253 255 253 248 255 255 250 
249 255 249 245 251 249 248 255 255 244 255 255 236 224 226 135 160 154 
30 96 82 31 115 102 29 106 100 42 106 108 37 98 101 36 104 105 39 100 101 
40 97 88 60 108 82 106 138 97 152 170 120 173 188 133 174 193 137 167 195 137 
173 196 126 171 195 133 165 187 140 179 203 169 234 253 233 251 255 250 
254 255 250 248 255 255 255 255 253 255 254 249 255 255 250 251 255 251 
250 255 254 248 255 255 241 255 252 255 251 253 200 225 219 82 148 134 
9 93 80 35 112 106 38 102 104 45 106 109 32 100 101 38 99 100 65 122 113 
110 158 132 155 187 146 176 194 144 175 190 135 169 188 132 167 195 137 
168 191 121 173 197 135 171 193 146 165 189 155 195 214 194 242 249 241 
254 255 250 250 251 253 254 255 255 255 255 251 255 253 250 255 255 251 
252 255 251 254 255 250 255 255 248 252 254 251 252 252 254 205 208 215 
96 121 128 27 81 81 31 101 91 30 94 77 56 110 87 111 141 89 149 167 115 
180 189 136 177 192 135 162 192 130 160 196 135 170 197 146 180 193 150 
172 197 140 168 193 135 166 196 132 172 193 134 174 186 140 204 210 182 
247 247 237 254 255 255 254 255 255 255 254 250 255 254 251 255 255 251 
249 254 248 250 253 246 255 255 248 250 252 249 255 255 255 252 255 255 
187 212 219 104 158 158 56 126 116 54 118 101 102 156 133 159 189 137 
174 192 140 183 192 139 175 190 133 166 196 134 166 202 141 168 195 144 
169 182 139 168 193 136 167 192 134 167 197 133 175 196 137 166 178 132 
172 178 150 252 252 242 255 253 255 249 253 254 251 255 255 255 252 255 
255 253 255 251 255 255 251 255 255 255 252 255 254 255 253 255 255 255 
249 247 252 254 255 255 238 247 242 169 184 161 147 166 121 174 194 135 
162 195 142 165 192 139 168 191 135 172 193 134 169 193 131 167 191 129 
171 193 131 176 196 137 173 193 142 177 191 140 180 187 135 191 170 125 
194 160 125 190 166 138 252 233 216 255 253 255 252 255 255 252 255 255 
255 251 255 255 250 254 251 255 255 251 255 255 255 251 255 251 253 250 
255 255 255 255 253 255 252 253 255 238 247 242 197 212 189 162 181 136 
176 196 137 161 194 141 167 194 141 171 194 138 172 193 134 170 194 132 
171 195 133 173 195 133 173 193 134 173 193 142 166 180 129 166 173 121 
180 159 114 195 161 126 191 167 139 197 178 161 
